<svg width="231" height="191" viewBox="0 0 231 191" fill="none" xmlns="http://www.w3.org/2000/svg">
<path fill-rule="evenodd" clip-rule="evenodd" d="M50.2439 45.1135C47.0444 45.1135 44.4507 47.7072 44.4507 50.9067V73.0278C44.4507 76.2273 47.0444 78.821 50.2439 78.821H55.6783C58.5788 78.821 61.2881 80.2682 62.9009 82.679L69.0161 91.82L75.1314 82.679C76.7442 80.2682 79.4535 78.821 82.354 78.821H136.155C139.354 78.821 141.948 76.2273 141.948 73.0278V50.9067C141.948 47.7072 139.354 45.1135 136.155 45.1135H50.2439ZM38.6575 50.9067C38.6575 44.5077 43.8449 39.3203 50.2439 39.3203H136.155C142.554 39.3203 147.741 44.5077 147.741 50.9067V73.0278C147.741 79.4268 142.554 84.6142 136.155 84.6142H82.354C81.3872 84.6142 80.4841 85.0966 79.9465 85.9002L71.4237 98.64C70.2766 100.355 67.7557 100.355 66.6086 98.64L58.0858 85.9002C57.5482 85.0966 56.6451 84.6142 55.6783 84.6142H50.2439C43.8449 84.6142 38.6575 79.4268 38.6575 73.0278V50.9067Z" fill="url(#paint0_linear_1603_3313)"/>
<path d="M73.4415 62.5233C73.4415 66.3805 70.3146 69.5075 66.4573 69.5075C62.6001 69.5075 59.4731 66.3805 59.4731 62.5233C59.4731 58.666 62.6001 55.5391 66.4573 55.5391C70.3146 55.5391 73.4415 58.666 73.4415 62.5233Z" fill="url(#paint1_linear_1603_3313)"/>
<path d="M98.6161 62.5233C98.6161 66.3805 95.4892 69.5075 91.6319 69.5075C87.7746 69.5075 84.6477 66.3805 84.6477 62.5233C84.6477 58.666 87.7746 55.5391 91.6319 55.5391C95.4892 55.5391 98.6161 58.666 98.6161 62.5233Z" fill="url(#paint2_linear_1603_3313)"/>
<path d="M123.792 62.5233C123.792 66.3805 120.665 69.5075 116.808 69.5075C112.951 69.5075 109.824 66.3805 109.824 62.5233C109.824 58.666 112.951 55.5391 116.808 55.5391C120.665 55.5391 123.792 58.666 123.792 62.5233Z" fill="url(#paint3_linear_1603_3313)"/>
<path fill-rule="evenodd" clip-rule="evenodd" d="M179.803 96.6868C183.002 96.6868 185.596 99.2805 185.596 102.48V124.601C185.596 127.801 183.002 130.394 179.803 130.394H174.368C171.468 130.394 168.758 131.841 167.146 134.252L161.03 143.393L154.915 134.252C153.302 131.841 150.593 130.394 147.692 130.394H93.8919C90.6924 130.394 88.0987 127.801 88.0987 124.601V102.48C88.0987 99.2805 90.6924 96.6868 93.8919 96.6868H179.803ZM191.389 102.48C191.389 96.081 186.202 90.8936 179.803 90.8936H93.8919C87.4929 90.8936 82.3055 96.081 82.3055 102.48V124.601C82.3055 131 87.4929 136.187 93.8919 136.187H147.692C148.659 136.187 149.562 136.67 150.1 137.473L158.623 150.213C159.77 151.928 162.291 151.928 163.438 150.213L171.961 137.473C172.498 136.67 173.401 136.187 174.368 136.187H179.803C186.202 136.187 191.389 131 191.389 124.601V102.48Z" fill="url(#paint4_linear_1603_3313)"/>
<path d="M156.605 114.097C156.605 117.955 159.732 121.082 163.589 121.082C167.446 121.082 170.573 117.955 170.573 114.097C170.573 110.24 167.446 107.113 163.589 107.113C159.732 107.113 156.605 110.24 156.605 114.097Z" fill="url(#paint5_linear_1603_3313)"/>
<path d="M131.431 114.097C131.431 117.955 134.557 121.082 138.415 121.082C142.272 121.082 145.399 117.955 145.399 114.097C145.399 110.24 142.272 107.113 138.415 107.113C134.557 107.113 131.431 110.24 131.431 114.097Z" fill="url(#paint6_linear_1603_3313)"/>
<path d="M106.255 114.097C106.255 117.955 109.382 121.082 113.239 121.082C117.096 121.082 120.223 117.955 120.223 114.097C120.223 110.24 117.096 107.113 113.239 107.113C109.382 107.113 106.255 110.24 106.255 114.097Z" fill="url(#paint7_linear_1603_3313)"/>
<defs>
<linearGradient id="paint0_linear_1603_3313" x1="93.1993" y1="39.3203" x2="93.1993" y2="99.926" gradientUnits="userSpaceOnUse">
<stop stop-color="#21C0E2"/>
<stop offset="1" stop-color="#01E6B5"/>
</linearGradient>
<linearGradient id="paint1_linear_1603_3313" x1="66.4573" y1="55.5391" x2="66.4573" y2="69.5075" gradientUnits="userSpaceOnUse">
<stop stop-color="#21C0E2"/>
<stop offset="1" stop-color="#01E6B5"/>
</linearGradient>
<linearGradient id="paint2_linear_1603_3313" x1="91.6319" y1="55.5391" x2="91.6319" y2="69.5075" gradientUnits="userSpaceOnUse">
<stop stop-color="#21C0E2"/>
<stop offset="1" stop-color="#01E6B5"/>
</linearGradient>
<linearGradient id="paint3_linear_1603_3313" x1="116.808" y1="55.5391" x2="116.808" y2="69.5075" gradientUnits="userSpaceOnUse">
<stop stop-color="#21C0E2"/>
<stop offset="1" stop-color="#01E6B5"/>
</linearGradient>
<linearGradient id="paint4_linear_1603_3313" x1="136.847" y1="90.8936" x2="136.847" y2="151.499" gradientUnits="userSpaceOnUse">
<stop stop-color="#21C0E2"/>
<stop offset="1" stop-color="#01E6B5"/>
</linearGradient>
<linearGradient id="paint5_linear_1603_3313" x1="163.589" y1="107.113" x2="163.589" y2="121.082" gradientUnits="userSpaceOnUse">
<stop stop-color="#21C0E2"/>
<stop offset="1" stop-color="#01E6B5"/>
</linearGradient>
<linearGradient id="paint6_linear_1603_3313" x1="138.415" y1="107.113" x2="138.415" y2="121.082" gradientUnits="userSpaceOnUse">
<stop stop-color="#21C0E2"/>
<stop offset="1" stop-color="#01E6B5"/>
</linearGradient>
<linearGradient id="paint7_linear_1603_3313" x1="113.239" y1="107.113" x2="113.239" y2="121.082" gradientUnits="userSpaceOnUse">
<stop stop-color="#21C0E2"/>
<stop offset="1" stop-color="#01E6B5"/>
</linearGradient>
</defs>
</svg>
