
<svg width="90" height="113" viewBox="0 0 90 113" fill="none" xmlns="http://www.w3.org/2000/svg">
<g filter="url(#filter0_d_361_3247)">
<path d="M1 4C1 2.34314 2.34314 1 4 1H86C87.6569 1 89 2.34315 89 4V87.7611C89 88.9543 88.2928 90.0342 87.199 90.5111L46.199 108.386C45.4344 108.72 44.5656 108.72 43.801 108.386L2.80105 90.5111L2.4014 91.4277L2.80105 90.5111C1.70721 90.0342 1 88.9543 1 87.7611V4Z" fill="white" stroke="#3E3498" stroke-width="2" vector-effect="non-scaling-stroke"/>
<path d="M29 64L29 43.8182" stroke="#3E3498" stroke-width="5" stroke-linecap="round"/>
<path d="M45 64L45 34.5682" stroke="#3E3498" stroke-width="5" stroke-linecap="round"/>
<path d="M61 64L61 27" stroke="#3E3498" stroke-width="5" stroke-linecap="round"/>
</g>
<defs>
<filter id="filter0_d_361_3247" x="0" y="0" width="90" height="112.637" filterUnits="userSpaceOnUse" color-interpolation-filters="sRGB">
<feFlood flood-opacity="0" result="BackgroundImageFix"/>
<feColorMatrix in="SourceAlpha" type="matrix" values="0 0 0 0 0 0 0 0 0 0 0 0 0 0 0 0 0 0 127 0" result="hardAlpha"/>
<feOffset dy="3"/>
<feComposite in2="hardAlpha" operator="out"/>
<feColorMatrix type="matrix" values="0 0 0 0 0 0 0 0 0 0 0 0 0 0 0 0 0 0 0.2 0"/>
<feBlend mode="normal" in2="BackgroundImageFix" result="effect1_dropShadow_361_3247"/>
<feBlend mode="normal" in="SourceGraphic" in2="effect1_dropShadow_361_3247" result="shape"/>
</filter>
</defs>
</svg>