<svg width="231" height="191" viewBox="0 0 231 191" fill="none" xmlns="http://www.w3.org/2000/svg">
<path d="M169.807 168.69H71.2208C70.1806 168.69 69.3374 167.846 69.3374 166.806V34.9918C69.3374 33.9516 70.1806 33.1084 71.2208 33.1084H143.832L171.691 63.9794V166.806C171.691 167.846 170.847 168.69 169.807 168.69Z" fill="white"/>
<path fill-rule="evenodd" clip-rule="evenodd" d="M141.007 38.7587H74.9877V163.039H166.04V66.8045H144.774C142.694 66.8045 141.007 65.1181 141.007 63.0377V38.7587ZM171.691 63.9794V166.806C171.691 167.846 170.847 168.69 169.807 168.69H71.2208C70.1806 168.69 69.3374 167.846 69.3374 166.806V34.9918C69.3374 33.9516 70.1806 33.1084 71.2208 33.1084H143.832L171.691 63.9794ZM161.53 61.1542L146.658 44.673V61.1542H161.53Z" fill="url(#paint0_linear_1603_3231)"/>
<path d="M59.4995 22.9238H126.292V94.935H59.4995V22.9238Z" fill="white"/>
<path d="M82.3587 79.0905C80.6636 79.0905 79.0815 78.4407 77.6124 77.1411C76.1998 75.785 75.0698 74.0334 74.2222 71.8863C73.4312 69.7392 73.0356 67.4508 73.0356 65.0212C73.0356 61.292 73.6854 57.7888 74.985 54.5116C76.3411 51.1779 77.9797 48.381 79.9008 46.1209C81.8219 43.8042 83.6582 42.1656 85.4098 41.2051H85.4946L88.461 43.9172V45.1038C87.0484 46.4034 85.7206 48.268 84.4775 50.6976C83.2345 53.0707 82.6129 56.0089 82.6129 59.5121C82.6129 61.3202 82.8672 62.7893 83.3757 63.9194C83.8843 65.0494 84.647 66.2925 85.6641 67.6486C86.5117 68.7221 87.1332 69.6544 87.5287 70.4455C87.9242 71.2365 88.122 72.1971 88.122 73.3271C88.122 75.0222 87.557 76.4065 86.4269 77.4801C85.3533 78.5537 83.9973 79.0905 82.3587 79.0905ZM105.92 79.0905C104.225 79.0905 102.672 78.4407 101.259 77.1411C99.8464 75.785 98.7163 74.0334 97.8688 71.8863C97.0777 69.7392 96.6822 67.4508 96.6822 65.0212C96.6822 61.292 97.332 57.7888 98.6316 54.5116C99.9877 51.1779 101.626 48.3527 103.547 46.0361C105.468 43.7195 107.305 42.1091 109.056 41.2051H109.141L112.023 43.9172V45.1038C110.61 46.4034 109.282 48.268 108.039 50.6976C106.796 53.0707 106.175 56.0089 106.175 59.5121C106.175 61.3202 106.429 62.7893 106.938 63.9194C107.446 65.0494 108.209 66.2925 109.226 67.6486C110.073 68.7221 110.695 69.6544 111.091 70.4455C111.486 71.2365 111.684 72.1971 111.684 73.3271C111.684 75.0222 111.119 76.4065 109.989 77.4801C108.915 78.5537 107.559 79.0905 105.92 79.0905Z" fill="url(#paint1_linear_1603_3231)"/>
<defs>
<linearGradient id="paint0_linear_1603_3231" x1="120.514" y1="33.1084" x2="120.514" y2="168.69" gradientUnits="userSpaceOnUse">
<stop stop-color="#21C0E2"/>
<stop offset="1" stop-color="#01E6B5"/>
</linearGradient>
<linearGradient id="paint1_linear_1603_3231" x1="92.5292" y1="41.2051" x2="92.5292" y2="79.0905" gradientUnits="userSpaceOnUse">
<stop stop-color="#21C0E2"/>
<stop offset="1" stop-color="#01E6B5"/>
</linearGradient>
</defs>
</svg>
