<svg width="231" height="191" viewBox="0 0 231 191" fill="none" xmlns="http://www.w3.org/2000/svg">
<path fill-rule="evenodd" clip-rule="evenodd" d="M167.498 121.242L58.973 124.406L59.401 139.083C59.4011 139.09 59.4013 139.097 59.4015 139.104C59.6061 146.122 84.0661 151.102 114.034 150.228C144.001 149.354 168.129 142.957 167.926 135.941L167.926 135.941L167.498 121.242Z" fill="white"/>
<path fill-rule="evenodd" clip-rule="evenodd" d="M56.0462 121.645L170.259 118.314L170.854 138.701L170.142 138.722C169.859 139.309 169.499 139.851 169.094 140.342C168.111 141.536 166.767 142.563 165.255 143.458C162.23 145.25 158.011 146.816 153.023 148.138C143.004 150.794 129.253 152.63 114.118 153.072C98.9818 153.513 85.1465 152.481 74.9893 150.413C69.9335 149.384 65.6301 148.066 62.5053 146.454C60.9438 145.648 59.543 144.701 58.4919 143.566C57.4241 142.414 56.6089 140.942 56.5577 139.187L56.5571 139.165L56.0462 121.645ZM164.737 124.168L61.9006 127.167L62.2462 139.019C62.2467 139.036 62.2496 139.087 62.2964 139.187C62.347 139.295 62.4528 139.468 62.6661 139.698C63.1089 140.176 63.8867 140.762 65.1154 141.397C67.5709 142.664 71.2939 143.853 76.1247 144.836C85.7406 146.794 99.1194 147.816 113.952 147.383C128.783 146.951 142.08 145.152 151.565 142.637C156.33 141.374 159.978 139.97 162.355 138.561C163.545 137.857 164.288 137.226 164.702 136.723C164.902 136.481 164.997 136.302 165.042 136.191C165.083 136.089 165.083 136.039 165.082 136.022L164.737 124.168Z" fill="url(#paint0_linear_1603_3261)"/>
<mask id="mask0_1603_3261" style="mask-type:luminance" maskUnits="userSpaceOnUse" x="57" y="119" width="113" height="33">
<path fill-rule="evenodd" clip-rule="evenodd" d="M167.498 121.242L58.9731 124.406L59.4007 139.07C59.4009 139.081 59.4012 139.093 59.4015 139.104C59.6061 146.121 84.0661 151.102 114.034 150.228C144.001 149.354 168.129 142.957 167.926 135.94L167.926 135.94L167.498 121.242Z" fill="white"/>
<path d="M58.9731 124.406L58.9294 122.907L57.43 122.951L57.4737 124.45L58.9731 124.406ZM167.498 121.242L168.997 121.198L168.953 119.698L167.454 119.742L167.498 121.242ZM59.4007 139.07L60.9005 139.043L60.9003 139.035L60.9001 139.026L59.4007 139.07ZM167.926 135.94L167.882 134.441L166.383 134.485L166.427 135.984L167.926 135.94ZM167.926 135.94L167.97 137.44L169.469 137.396L169.426 135.897L167.926 135.94ZM59.0168 125.906L167.541 122.741L167.454 119.742L58.9294 122.907L59.0168 125.906ZM60.9001 139.026L60.4725 124.363L57.4737 124.45L57.9013 139.114L60.9001 139.026ZM60.9009 139.061C60.9007 139.055 60.9006 139.049 60.9005 139.043L57.9009 139.097C57.9013 139.114 57.9017 139.131 57.9021 139.148L60.9009 139.061ZM113.991 148.728C99.0864 149.163 85.5997 148.139 75.8558 146.155C70.9718 145.161 67.1116 143.942 64.4979 142.593C63.1905 141.918 62.2654 141.246 61.6788 140.613C61.101 139.99 60.913 139.475 60.9009 139.061L57.9021 139.148C57.9412 140.488 58.5623 141.664 59.4784 142.652C60.3857 143.631 61.6392 144.493 63.122 145.259C66.0885 146.79 70.2547 148.076 75.2573 149.095C85.2866 151.137 99.0139 152.166 114.078 151.727L113.991 148.728ZM166.427 135.984C166.439 136.398 166.281 136.923 165.74 137.579C165.191 138.245 164.307 138.97 163.041 139.72C160.51 141.218 156.727 142.661 151.909 143.938C142.298 146.486 128.894 148.294 113.991 148.728L114.078 151.727C129.141 151.288 142.785 149.46 152.678 146.838C157.613 145.529 161.697 144.002 164.569 142.301C166.005 141.45 167.206 140.517 168.055 139.487C168.912 138.447 169.464 137.237 169.425 135.897L166.427 135.984ZM167.883 134.441L167.882 134.441L167.97 137.44L167.97 137.44L167.883 134.441ZM165.998 121.285L166.427 135.984L169.426 135.897L168.997 121.198L165.998 121.285Z" fill="white"/>
</mask>
<g mask="url(#mask0_1603_3261)">
<path fill-rule="evenodd" clip-rule="evenodd" d="M56.0957 155.098L55.095 120.782L60.7835 120.616L61.7841 154.932L56.0957 155.098Z" fill="url(#paint1_linear_1603_3261)"/>
<path fill-rule="evenodd" clip-rule="evenodd" d="M63.7316 155.447L62.731 121.131L68.4194 120.965L69.4201 155.281L63.7316 155.447Z" fill="url(#paint2_linear_1603_3261)"/>
<path fill-rule="evenodd" clip-rule="evenodd" d="M71.864 154.638L70.8633 120.322L76.5518 120.156L77.5524 154.472L71.864 154.638Z" fill="url(#paint3_linear_1603_3261)"/>
<path fill-rule="evenodd" clip-rule="evenodd" d="M82.3757 154.33L81.375 120.015L87.0635 119.849L88.0642 154.165L82.3757 154.33Z" fill="url(#paint4_linear_1603_3261)"/>
<path fill-rule="evenodd" clip-rule="evenodd" d="M92.8879 154.024L91.8872 119.708L97.5757 119.542L98.5764 153.858L92.8879 154.024Z" fill="url(#paint5_linear_1603_3261)"/>
<path fill-rule="evenodd" clip-rule="evenodd" d="M103.398 153.717L102.397 119.401L108.086 119.235L109.087 153.551L103.398 153.717Z" fill="url(#paint6_linear_1603_3261)"/>
<path fill-rule="evenodd" clip-rule="evenodd" d="M113.909 153.411L112.909 119.095L118.597 118.929L119.598 153.245L113.909 153.411Z" fill="url(#paint7_linear_1603_3261)"/>
<path fill-rule="evenodd" clip-rule="evenodd" d="M124.422 153.105L123.421 118.789L129.11 118.623L130.111 152.939L124.422 153.105Z" fill="url(#paint8_linear_1603_3261)"/>
<path fill-rule="evenodd" clip-rule="evenodd" d="M134.932 152.797L133.932 118.481L139.62 118.316L140.621 152.631L134.932 152.797Z" fill="url(#paint9_linear_1603_3261)"/>
<path fill-rule="evenodd" clip-rule="evenodd" d="M145.443 152.491L144.442 118.175L150.131 118.009L151.132 152.325L145.443 152.491Z" fill="url(#paint10_linear_1603_3261)"/>
<path fill-rule="evenodd" clip-rule="evenodd" d="M155.955 152.185L154.955 117.869L160.643 117.703L161.644 152.019L155.955 152.185Z" fill="url(#paint11_linear_1603_3261)"/>
<path fill-rule="evenodd" clip-rule="evenodd" d="M166.467 151.877L165.467 117.562L171.155 117.396L172.156 151.711L166.467 151.877Z" fill="url(#paint12_linear_1603_3261)"/>
</g>
<ellipse cx="113.237" cy="122.827" rx="54.2853" ry="12.7112" transform="rotate(-1.67034 113.237 122.827)" fill="white"/>
<path fill-rule="evenodd" clip-rule="evenodd" d="M61.8596 124.157C61.8187 124.259 61.8187 124.309 61.8192 124.326C61.8197 124.342 61.8226 124.392 61.8694 124.492C61.92 124.6 62.0258 124.773 62.2391 125.003C62.6819 125.481 63.4597 126.067 64.6884 126.701C67.1439 127.969 70.8669 129.158 75.6977 130.141C85.3136 132.099 98.6924 133.12 113.525 132.688C128.357 132.255 141.654 130.456 151.139 127.941C155.904 126.678 159.552 125.274 161.929 123.866C163.119 123.161 163.861 122.53 164.275 122.027C164.475 121.785 164.571 121.606 164.615 121.495C164.656 121.393 164.656 121.343 164.655 121.327C164.655 121.31 164.652 121.26 164.605 121.161C164.554 121.053 164.449 120.88 164.235 120.649C163.792 120.172 163.015 119.585 161.786 118.951C159.33 117.684 155.607 116.495 150.777 115.511C141.161 113.553 127.782 112.532 112.95 112.965C98.1173 113.397 84.8207 115.196 75.3352 117.711C70.57 118.975 66.9226 120.378 64.5451 121.787C63.3554 122.491 62.6131 123.122 62.1989 123.625C61.9994 123.867 61.9038 124.046 61.8596 124.157ZM73.8768 112.21C83.8963 109.554 97.6479 107.717 112.784 107.276C127.92 106.835 141.755 107.867 151.912 109.935C156.968 110.964 161.271 112.281 164.396 113.894C165.958 114.7 167.358 115.647 168.409 116.781C169.477 117.934 170.293 119.406 170.344 121.161C170.395 122.916 169.667 124.433 168.668 125.646C167.685 126.839 166.341 127.866 164.83 128.762C161.804 130.554 157.585 132.12 152.598 133.442C142.578 136.098 128.827 137.935 113.691 138.376C98.5548 138.818 84.7195 137.786 74.5623 135.718C69.5065 134.688 65.2031 133.371 62.0783 131.758C60.5169 130.952 59.116 130.005 58.0649 128.871C56.9971 127.719 56.1819 126.246 56.1307 124.491C56.0795 122.737 56.8076 121.219 57.8064 120.007C58.7897 118.813 60.1329 117.786 61.6448 116.89C64.6702 115.098 68.8895 113.533 73.8768 112.21Z" fill="url(#paint13_linear_1603_3261)"/>
<path fill-rule="evenodd" clip-rule="evenodd" d="M159.064 44.9475L67.4439 103.2L75.3217 115.59C75.3256 115.597 75.3294 115.603 75.3333 115.609C79.1 121.533 102.663 113.295 127.963 97.2092C153.263 81.1239 170.719 63.2819 166.954 57.3569L166.954 57.3569L159.064 44.9475Z" fill="white"/>
<path fill-rule="evenodd" clip-rule="evenodd" d="M63.5167 102.325L159.939 41.0192L170.882 58.2308L170.281 58.6131C170.339 59.2619 170.307 59.9116 170.21 60.541C169.976 62.0696 169.347 63.6393 168.507 65.1823C166.824 68.2701 164 71.7743 160.392 75.4622C153.143 82.8714 142.268 91.4857 129.491 99.6098C116.713 107.734 104.298 113.927 94.5129 117.348C89.6424 119.051 85.2712 120.121 81.7613 120.335C80.0073 120.441 78.3192 120.345 76.8357 119.908C75.3286 119.464 73.8747 118.616 72.9327 117.135L72.9211 117.117L63.5167 102.325ZM158.19 48.875L71.3725 104.074L77.7344 114.08C77.7434 114.094 77.772 114.137 77.8632 114.199C77.9619 114.265 78.1415 114.36 78.4425 114.449C79.0675 114.633 80.0358 114.738 81.4159 114.654C84.1741 114.487 87.9812 113.603 92.6348 111.976C101.898 108.738 113.915 102.769 126.437 94.8074C138.959 86.8462 149.462 78.4967 156.324 71.4824C159.772 67.9586 162.187 64.886 163.509 62.4594C164.171 61.2452 164.486 60.3233 164.585 59.6792C164.632 59.3689 164.623 59.166 164.604 59.0482C164.587 58.9392 164.562 58.8965 164.553 58.8824L158.19 48.875Z" fill="url(#paint14_linear_1603_3261)"/>
<mask id="mask1_1603_3261" style="mask-type:luminance" maskUnits="userSpaceOnUse" x="65" y="42" width="104" height="78">
<path fill-rule="evenodd" clip-rule="evenodd" d="M159.064 44.9476L67.4438 103.2L75.3337 115.609L75.3338 115.609C79.1021 121.532 102.664 113.294 127.963 97.209C153.264 81.1229 170.72 63.2802 166.953 57.356C166.949 57.3488 166.944 57.3417 166.94 57.3345L159.064 44.9476Z" fill="white"/>
<path d="M67.4438 103.2L66.639 101.934L65.3732 102.739L66.178 104.005L67.4438 103.2ZM159.064 44.9476L160.33 44.1428L159.525 42.877L158.259 43.6818L159.064 44.9476ZM75.3337 115.609L74.0679 116.414L74.8727 117.68L76.1386 116.875L75.3337 115.609ZM75.3338 115.609L76.5994 114.804L75.7944 113.539L74.529 114.344L75.3338 115.609ZM166.94 57.3345L165.674 58.1394L165.68 58.1496L166.94 57.3345ZM68.2487 104.466L159.869 46.2134L158.259 43.6818L66.639 101.934L68.2487 104.466ZM76.5996 114.805L68.7097 102.395L66.178 104.005L74.0679 116.414L76.5996 114.805ZM74.529 114.344L74.5289 114.344L76.1386 116.875L76.1387 116.875L74.529 114.344ZM127.159 95.9431C114.577 103.943 102.466 109.964 93.0795 113.246C88.3747 114.891 84.4342 115.819 81.4981 115.998C80.0296 116.087 78.8909 115.984 78.0628 115.74C77.2471 115.5 76.822 115.154 76.5994 114.804L74.0683 116.415C74.7878 117.545 75.9233 118.238 77.2162 118.618C78.4968 118.995 80.0148 119.094 81.6804 118.992C85.0127 118.789 89.2505 117.763 94.0696 116.078C103.731 112.7 116.051 106.56 128.768 98.4748L127.159 95.9431ZM165.687 58.1608C165.91 58.5107 166.043 59.0423 165.914 59.8826C165.784 60.7357 165.395 61.8107 164.691 63.1026C163.284 65.6854 160.772 68.8601 157.286 72.4228C150.332 79.5307 139.741 87.9431 127.159 95.9431L128.768 98.4748C141.486 90.3888 152.273 81.8368 159.431 74.5208C163.001 70.8715 165.728 67.4693 167.325 64.5378C168.124 63.0725 168.678 61.6559 168.88 60.3365C169.084 59.0042 168.938 57.6823 168.219 56.5512L165.687 58.1608ZM165.68 58.1496C165.683 58.1537 165.685 58.1574 165.687 58.1608L168.219 56.5512C168.212 56.5402 168.205 56.5297 168.199 56.5195L165.68 58.1496ZM157.798 45.7524L165.674 58.1394L168.205 56.5297L160.33 44.1428L157.798 45.7524Z" fill="white"/>
</mask>
<g mask="url(#mask1_1603_3261)">
<path fill-rule="evenodd" clip-rule="evenodd" d="M76.2397 133.86L57.8201 104.89L62.6225 101.836L81.0421 130.807L76.2397 133.86Z" fill="url(#paint15_linear_1603_3261)"/>
<path fill-rule="evenodd" clip-rule="evenodd" d="M80.6777 131.042L62.2581 102.071L67.0605 99.0179L85.4801 127.988L80.6777 131.042Z" fill="url(#paint16_linear_1603_3261)"/>
<path fill-rule="evenodd" clip-rule="evenodd" d="M87.416 127.434L68.9963 98.4639L73.7987 95.4105L92.2184 124.381L87.416 127.434Z" fill="url(#paint17_linear_1603_3261)"/>
<path fill-rule="evenodd" clip-rule="evenodd" d="M93.9895 122.578L75.5698 93.6074L80.3722 90.554L98.7919 119.525L93.9895 122.578Z" fill="url(#paint18_linear_1603_3261)"/>
<path fill-rule="evenodd" clip-rule="evenodd" d="M102.863 116.935L84.4429 87.9648L89.2453 84.9114L107.665 113.882L102.863 116.935Z" fill="url(#paint19_linear_1603_3261)"/>
<path fill-rule="evenodd" clip-rule="evenodd" d="M111.738 111.293L93.3184 82.3223L98.1208 79.2689L116.54 108.239L111.738 111.293Z" fill="url(#paint20_linear_1603_3261)"/>
<path fill-rule="evenodd" clip-rule="evenodd" d="M120.611 105.65L102.191 76.6797L106.993 73.6263L125.413 102.597L120.611 105.65Z" fill="url(#paint21_linear_1603_3261)"/>
<path fill-rule="evenodd" clip-rule="evenodd" d="M129.485 100.009L111.065 71.0381L115.868 67.9847L134.287 96.9552L129.485 100.009Z" fill="url(#paint22_linear_1603_3261)"/>
<path fill-rule="evenodd" clip-rule="evenodd" d="M138.36 94.366L119.94 65.3955L124.743 62.3421L143.162 91.3126L138.36 94.366Z" fill="url(#paint23_linear_1603_3261)"/>
<path fill-rule="evenodd" clip-rule="evenodd" d="M147.233 88.7234L128.813 59.7529L133.615 56.6995L152.035 85.67L147.233 88.7234Z" fill="url(#paint24_linear_1603_3261)"/>
<path fill-rule="evenodd" clip-rule="evenodd" d="M156.106 83.0818L137.687 54.1113L142.489 51.0579L160.909 80.0284L156.106 83.0818Z" fill="url(#paint25_linear_1603_3261)"/>
<path fill-rule="evenodd" clip-rule="evenodd" d="M164.981 77.4393L146.562 48.4688L151.364 45.4154L169.784 74.3859L164.981 77.4393Z" fill="url(#paint26_linear_1603_3261)"/>
<path fill-rule="evenodd" clip-rule="evenodd" d="M173.855 71.7967L155.436 42.8262L160.238 39.7728L178.658 68.7433L173.855 71.7967Z" fill="url(#paint27_linear_1603_3261)"/>
<path fill-rule="evenodd" clip-rule="evenodd" d="M178.291 68.9744L159.872 40.0039L164.674 36.9505L183.094 65.921L178.291 68.9744Z" fill="url(#paint28_linear_1603_3261)"/>
</g>
<ellipse cx="113.256" cy="74.0759" rx="54.2853" ry="12.7112" transform="rotate(-32.4485 113.256 74.0759)" fill="white"/>
<path fill-rule="evenodd" clip-rule="evenodd" d="M69.7956 101.509C69.8128 101.618 69.8382 101.661 69.8472 101.675C69.8561 101.689 69.884 101.73 69.9753 101.792C70.074 101.859 70.2535 101.954 70.5546 102.042C71.1795 102.226 72.1479 102.332 73.528 102.248C76.2862 102.08 80.0932 101.197 84.7469 99.5697C94.0103 96.3312 106.027 90.3625 118.549 82.4009C131.071 74.4394 141.574 66.0896 148.437 59.0751C151.885 55.5511 154.3 52.4786 155.622 50.052C156.283 48.8379 156.598 47.9161 156.697 47.2722C156.745 46.962 156.735 46.7592 156.716 46.6415C156.699 46.5326 156.674 46.49 156.665 46.4759C156.656 46.4618 156.628 46.4206 156.537 46.3589C156.438 46.292 156.258 46.1974 155.957 46.1088C155.332 45.9248 154.364 45.819 152.984 45.9029C150.226 46.0706 146.419 46.9542 141.765 48.5812C132.502 51.8197 120.485 57.7884 107.963 65.75C95.4406 73.7115 84.9374 82.0613 78.0748 89.0758C74.6272 92.5997 72.212 95.6723 70.8899 98.0989C70.2285 99.313 69.9134 100.235 69.8149 100.879C69.7674 101.189 69.7769 101.392 69.7956 101.509ZM74.0069 85.0961C81.2559 77.6867 92.131 69.072 104.909 60.9476C117.687 52.8231 130.102 46.63 139.887 43.2091C144.757 41.5064 149.129 40.4359 152.639 40.2225C154.393 40.1159 156.081 40.2128 157.564 40.6494C159.071 41.093 160.525 41.9409 161.467 43.4225C162.409 44.904 162.56 46.5803 162.322 48.1332C162.088 49.6618 161.46 51.2316 160.619 52.7747C158.937 55.8625 156.113 59.3668 152.505 63.0548C145.256 70.4642 134.381 79.0789 121.603 87.2033C108.825 95.3278 96.4099 101.521 86.625 104.942C81.7545 106.645 77.3832 107.715 73.8733 107.928C72.1194 108.035 70.4312 107.938 68.9477 107.501C67.4407 107.058 65.9867 106.21 65.0448 104.728C64.1028 103.247 63.9518 101.571 64.1895 100.018C64.4235 98.4891 65.0519 96.9193 65.8926 95.3762C67.5749 92.2884 70.3988 88.7841 74.0069 85.0961Z" fill="url(#paint29_linear_1603_3261)"/>
<defs>
<linearGradient id="paint0_linear_1603_3261" x1="113.153" y1="119.979" x2="114.118" y2="153.072" gradientUnits="userSpaceOnUse">
<stop stop-color="#21C0E2"/>
<stop offset="1" stop-color="#01E6B5"/>
</linearGradient>
<linearGradient id="paint1_linear_1603_3261" x1="57.9392" y1="120.699" x2="58.9399" y2="155.015" gradientUnits="userSpaceOnUse">
<stop stop-color="#21C0E2"/>
<stop offset="1" stop-color="#01E6B5"/>
</linearGradient>
<linearGradient id="paint2_linear_1603_3261" x1="65.5752" y1="121.048" x2="66.5759" y2="155.364" gradientUnits="userSpaceOnUse">
<stop stop-color="#21C0E2"/>
<stop offset="1" stop-color="#01E6B5"/>
</linearGradient>
<linearGradient id="paint3_linear_1603_3261" x1="73.7075" y1="120.239" x2="74.7082" y2="154.555" gradientUnits="userSpaceOnUse">
<stop stop-color="#21C0E2"/>
<stop offset="1" stop-color="#01E6B5"/>
</linearGradient>
<linearGradient id="paint4_linear_1603_3261" x1="84.2192" y1="119.932" x2="85.2199" y2="154.247" gradientUnits="userSpaceOnUse">
<stop stop-color="#21C0E2"/>
<stop offset="1" stop-color="#01E6B5"/>
</linearGradient>
<linearGradient id="paint5_linear_1603_3261" x1="94.7314" y1="119.625" x2="95.7321" y2="153.941" gradientUnits="userSpaceOnUse">
<stop stop-color="#21C0E2"/>
<stop offset="1" stop-color="#01E6B5"/>
</linearGradient>
<linearGradient id="paint6_linear_1603_3261" x1="105.242" y1="119.318" x2="106.242" y2="153.634" gradientUnits="userSpaceOnUse">
<stop stop-color="#21C0E2"/>
<stop offset="1" stop-color="#01E6B5"/>
</linearGradient>
<linearGradient id="paint7_linear_1603_3261" x1="115.753" y1="119.012" x2="116.754" y2="153.328" gradientUnits="userSpaceOnUse">
<stop stop-color="#21C0E2"/>
<stop offset="1" stop-color="#01E6B5"/>
</linearGradient>
<linearGradient id="paint8_linear_1603_3261" x1="126.266" y1="118.706" x2="127.266" y2="153.022" gradientUnits="userSpaceOnUse">
<stop stop-color="#21C0E2"/>
<stop offset="1" stop-color="#01E6B5"/>
</linearGradient>
<linearGradient id="paint9_linear_1603_3261" x1="136.776" y1="118.399" x2="137.777" y2="152.714" gradientUnits="userSpaceOnUse">
<stop stop-color="#21C0E2"/>
<stop offset="1" stop-color="#01E6B5"/>
</linearGradient>
<linearGradient id="paint10_linear_1603_3261" x1="147.287" y1="118.092" x2="148.287" y2="152.408" gradientUnits="userSpaceOnUse">
<stop stop-color="#21C0E2"/>
<stop offset="1" stop-color="#01E6B5"/>
</linearGradient>
<linearGradient id="paint11_linear_1603_3261" x1="157.799" y1="117.786" x2="158.8" y2="152.102" gradientUnits="userSpaceOnUse">
<stop stop-color="#21C0E2"/>
<stop offset="1" stop-color="#01E6B5"/>
</linearGradient>
<linearGradient id="paint12_linear_1603_3261" x1="168.311" y1="117.479" x2="169.312" y2="151.794" gradientUnits="userSpaceOnUse">
<stop stop-color="#21C0E2"/>
<stop offset="1" stop-color="#01E6B5"/>
</linearGradient>
<linearGradient id="paint13_linear_1603_3261" x1="112.784" y1="107.276" x2="113.691" y2="138.376" gradientUnits="userSpaceOnUse">
<stop stop-color="#21C0E2"/>
<stop offset="1" stop-color="#01E6B5"/>
</linearGradient>
<linearGradient id="paint14_linear_1603_3261" x1="111.728" y1="71.6722" x2="129.491" y2="99.6098" gradientUnits="userSpaceOnUse">
<stop stop-color="#21C0E2"/>
<stop offset="1" stop-color="#01E6B5"/>
</linearGradient>
<linearGradient id="paint15_linear_1603_3261" x1="60.2213" y1="103.363" x2="78.6409" y2="132.333" gradientUnits="userSpaceOnUse">
<stop stop-color="#21C0E2"/>
<stop offset="1" stop-color="#01E6B5"/>
</linearGradient>
<linearGradient id="paint16_linear_1603_3261" x1="64.6593" y1="100.545" x2="83.0789" y2="129.515" gradientUnits="userSpaceOnUse">
<stop stop-color="#21C0E2"/>
<stop offset="1" stop-color="#01E6B5"/>
</linearGradient>
<linearGradient id="paint17_linear_1603_3261" x1="71.3975" y1="96.9372" x2="89.8172" y2="125.908" gradientUnits="userSpaceOnUse">
<stop stop-color="#21C0E2"/>
<stop offset="1" stop-color="#01E6B5"/>
</linearGradient>
<linearGradient id="paint18_linear_1603_3261" x1="77.971" y1="92.0807" x2="96.3907" y2="121.051" gradientUnits="userSpaceOnUse">
<stop stop-color="#21C0E2"/>
<stop offset="1" stop-color="#01E6B5"/>
</linearGradient>
<linearGradient id="paint19_linear_1603_3261" x1="86.8441" y1="86.4381" x2="105.264" y2="115.409" gradientUnits="userSpaceOnUse">
<stop stop-color="#21C0E2"/>
<stop offset="1" stop-color="#01E6B5"/>
</linearGradient>
<linearGradient id="paint20_linear_1603_3261" x1="95.7196" y1="80.7956" x2="114.139" y2="109.766" gradientUnits="userSpaceOnUse">
<stop stop-color="#21C0E2"/>
<stop offset="1" stop-color="#01E6B5"/>
</linearGradient>
<linearGradient id="paint21_linear_1603_3261" x1="104.592" y1="75.153" x2="123.012" y2="104.124" gradientUnits="userSpaceOnUse">
<stop stop-color="#21C0E2"/>
<stop offset="1" stop-color="#01E6B5"/>
</linearGradient>
<linearGradient id="paint22_linear_1603_3261" x1="113.467" y1="69.5114" x2="131.886" y2="98.4819" gradientUnits="userSpaceOnUse">
<stop stop-color="#21C0E2"/>
<stop offset="1" stop-color="#01E6B5"/>
</linearGradient>
<linearGradient id="paint23_linear_1603_3261" x1="122.342" y1="63.8688" x2="140.761" y2="92.8393" gradientUnits="userSpaceOnUse">
<stop stop-color="#21C0E2"/>
<stop offset="1" stop-color="#01E6B5"/>
</linearGradient>
<linearGradient id="paint24_linear_1603_3261" x1="131.214" y1="58.2262" x2="149.634" y2="87.1967" gradientUnits="userSpaceOnUse">
<stop stop-color="#21C0E2"/>
<stop offset="1" stop-color="#01E6B5"/>
</linearGradient>
<linearGradient id="paint25_linear_1603_3261" x1="140.088" y1="52.5846" x2="158.507" y2="81.5551" gradientUnits="userSpaceOnUse">
<stop stop-color="#21C0E2"/>
<stop offset="1" stop-color="#01E6B5"/>
</linearGradient>
<linearGradient id="paint26_linear_1603_3261" x1="148.963" y1="46.9421" x2="167.382" y2="75.9126" gradientUnits="userSpaceOnUse">
<stop stop-color="#21C0E2"/>
<stop offset="1" stop-color="#01E6B5"/>
</linearGradient>
<linearGradient id="paint27_linear_1603_3261" x1="157.837" y1="41.2995" x2="176.256" y2="70.27" gradientUnits="userSpaceOnUse">
<stop stop-color="#21C0E2"/>
<stop offset="1" stop-color="#01E6B5"/>
</linearGradient>
<linearGradient id="paint28_linear_1603_3261" x1="162.273" y1="38.4772" x2="180.692" y2="67.4477" gradientUnits="userSpaceOnUse">
<stop stop-color="#21C0E2"/>
<stop offset="1" stop-color="#01E6B5"/>
</linearGradient>
<linearGradient id="paint29_linear_1603_3261" x1="104.909" y1="60.9476" x2="121.603" y2="87.2033" gradientUnits="userSpaceOnUse">
<stop stop-color="#21C0E2"/>
<stop offset="1" stop-color="#01E6B5"/>
</linearGradient>
</defs>
</svg>
