<svg width="231" height="191" viewBox="0 0 231 191" fill="none" xmlns="http://www.w3.org/2000/svg">
<path fill-rule="evenodd" clip-rule="evenodd" d="M115.255 46.329C104.245 37.368 91.7039 34.9197 80.4242 37.6408C68.0684 40.6215 57.6547 49.7084 52.7516 62.1551C42.6755 87.734 56.2263 124.129 113.003 152.77L115.255 153.906L117.507 152.77C174.284 124.129 187.834 87.734 177.758 62.1551C172.855 49.7084 162.441 40.6215 150.086 37.6408C138.806 34.9197 126.265 37.368 115.255 46.329ZM115.255 142.688C168.166 115.238 175.574 83.8994 168.453 65.8208C164.707 56.3121 156.83 49.5563 147.74 47.3634C138.785 45.2031 128.222 47.373 118.745 56.6057L115.255 60.0054L111.765 56.6057C102.288 47.373 91.7247 45.2031 82.7696 47.3634C73.6796 49.5563 65.8029 56.3121 62.0571 65.8208C54.9355 83.8994 62.3437 115.238 115.255 142.688Z" fill="url(#paint0_linear_1603_3325)"/>
<path d="M107.837 81.4853C107.07 80.5518 106.12 79.8351 104.987 79.335C103.886 78.8349 102.603 78.5849 101.136 78.5849C99.6691 78.5849 98.3022 78.8683 97.0354 79.435C95.8018 80.0018 94.7183 80.8019 93.7849 81.8354C92.8847 82.8355 92.168 84.0357 91.6345 85.4359C91.1345 86.8361 90.8844 88.353 90.8844 89.9866C90.8844 91.6535 91.1345 93.1871 91.6345 94.5873C92.168 95.9542 92.8847 97.1543 93.7849 98.1878C94.685 99.188 95.7352 99.9714 96.9353 100.538C98.1689 101.105 99.4857 101.388 100.886 101.388C102.486 101.388 103.903 101.055 105.137 100.388C106.37 99.7214 107.387 98.7879 108.187 97.5877L114.688 102.438C113.188 104.539 111.288 106.089 108.987 107.089C106.687 108.089 104.32 108.589 101.886 108.589C99.119 108.589 96.5686 108.156 94.2349 107.289C91.9012 106.422 89.8843 105.189 88.184 103.589C86.4838 101.955 85.1502 99.9881 84.1834 97.6878C83.2499 95.3874 82.7832 92.8204 82.7832 89.9866C82.7832 87.1528 83.2499 84.5858 84.1834 82.2854C85.1502 79.9851 86.4838 78.0348 88.184 76.4346C89.8843 74.801 91.9012 73.5508 94.2349 72.684C96.5686 71.8172 99.119 71.3838 101.886 71.3838C102.886 71.3838 103.92 71.4838 104.987 71.6838C106.087 71.8505 107.154 72.1339 108.187 72.534C109.254 72.934 110.271 73.4674 111.238 74.1342C112.204 74.801 113.071 75.6178 113.838 76.5846L107.837 81.4853Z" fill="url(#paint1_linear_1603_3325)"/>
<path d="M140.404 81.4853C139.637 80.5518 138.687 79.8351 137.553 79.335C136.453 78.8349 135.17 78.5849 133.703 78.5849C132.236 78.5849 130.869 78.8683 129.602 79.435C128.369 80.0018 127.285 80.8019 126.352 81.8354C125.451 82.8355 124.735 84.0357 124.201 85.4359C123.701 86.8361 123.451 88.353 123.451 89.9866C123.451 91.6535 123.701 93.1871 124.201 94.5873C124.735 95.9542 125.451 97.1543 126.352 98.1878C127.252 99.188 128.302 99.9714 129.502 100.538C130.736 101.105 132.052 101.388 133.453 101.388C135.053 101.388 136.47 101.055 137.703 100.388C138.937 99.7214 139.954 98.7879 140.754 97.5877L147.255 102.438C145.755 104.539 143.854 106.089 141.554 107.089C139.254 108.089 136.887 108.589 134.453 108.589C131.686 108.589 129.135 108.156 126.802 107.289C124.468 106.422 122.451 105.189 120.751 103.589C119.051 101.955 117.717 99.9881 116.75 97.6878C115.817 95.3874 115.35 92.8204 115.35 89.9866C115.35 87.1528 115.817 84.5858 116.75 82.2854C117.717 79.9851 119.051 78.0348 120.751 76.4346C122.451 74.801 124.468 73.5508 126.802 72.684C129.135 71.8172 131.686 71.3838 134.453 71.3838C135.453 71.3838 136.486 71.4838 137.553 71.6838C138.653 71.8505 139.72 72.1339 140.754 72.534C141.821 72.934 142.837 73.4674 143.804 74.1342C144.771 74.801 145.638 75.6178 146.405 76.5846L140.404 81.4853Z" fill="url(#paint2_linear_1603_3325)"/>
<defs>
<linearGradient id="paint0_linear_1603_3325" x1="115.255" y1="36.5898" x2="115.255" y2="153.906" gradientUnits="userSpaceOnUse">
<stop stop-color="#21C0E2"/>
<stop offset="1" stop-color="#01E6B5"/>
</linearGradient>
<linearGradient id="paint1_linear_1603_3325" x1="115.019" y1="71.3838" x2="115.019" y2="108.589" gradientUnits="userSpaceOnUse">
<stop stop-color="#21C0E2"/>
<stop offset="1" stop-color="#01E6B5"/>
</linearGradient>
<linearGradient id="paint2_linear_1603_3325" x1="115.019" y1="71.3838" x2="115.019" y2="108.589" gradientUnits="userSpaceOnUse">
<stop stop-color="#21C0E2"/>
<stop offset="1" stop-color="#01E6B5"/>
</linearGradient>
</defs>
</svg>
