<svg width="231" height="191" viewBox="0 0 231 191" fill="none" xmlns="http://www.w3.org/2000/svg">
<circle cx="116.087" cy="162.64" r="7.89554" fill="url(#paint0_linear_1603_3238)"/>
<rect x="59.2856" y="120.971" width="14.4481" height="14.4481" rx="1" transform="rotate(11.7518 59.2856 120.971)" fill="url(#paint1_linear_1603_3238)"/>
<path d="M179.686 77.5725C180.251 77.1373 181.077 77.4158 181.262 78.1041L182.801 83.8066C182.863 84.0366 183.005 84.237 183.202 84.3715L188.076 87.7062C188.665 88.1087 188.655 88.9801 188.058 89.3693L183.11 92.5944C182.91 92.7245 182.763 92.9216 182.696 93.1502L181.031 98.8169C180.83 99.5009 179.999 99.7609 179.444 99.3132L174.848 95.6039C174.662 95.4543 174.429 95.3757 174.191 95.3825L168.287 95.55C167.575 95.5702 167.07 94.8596 167.325 94.1936L169.432 88.6761C169.517 88.4535 169.52 88.2079 169.44 87.9834L167.456 82.4203C167.217 81.7488 167.737 81.0496 168.449 81.0857L174.347 81.3849C174.585 81.397 174.82 81.3237 175.009 81.1783L179.686 77.5725Z" fill="url(#paint2_linear_1603_3238)"/>
<path d="M60.9353 77.9902C61.1062 77.5921 61.514 77.3493 61.9454 77.3889L67.4886 77.8967C67.92 77.9362 68.2769 78.2491 68.3726 78.6716L69.6026 84.1004C69.6983 84.5229 69.5111 84.959 69.1388 85.1806L64.3558 88.028C63.9835 88.2496 63.5109 88.2063 63.1851 87.9207L58.9991 84.2517C58.6733 83.9661 58.5684 83.5032 58.7393 83.1051L60.9353 77.9902Z" fill="url(#paint3_linear_1603_3238)"/>
<path d="M162.264 43.7272C162.434 43.3291 162.842 43.0863 163.274 43.1259L171.122 43.8449C171.553 43.8844 171.91 44.1972 172.006 44.6197L173.747 52.3059C173.843 52.7285 173.656 53.1646 173.283 53.3862L166.512 57.4175C166.139 57.6391 165.667 57.5958 165.341 57.3102L159.414 52.1155C159.088 51.83 158.984 51.3671 159.155 50.969L162.264 43.7272Z" fill="url(#paint4_linear_1603_3238)"/>
<path d="M175.149 131.829C175.497 132.088 175.639 132.541 175.5 132.951L172.376 142.22C172.238 142.63 171.851 142.905 171.418 142.9L161.637 142.793C161.204 142.789 160.823 142.505 160.694 142.092L157.773 132.757C157.644 132.344 157.796 131.894 158.149 131.643L166.124 125.981C166.477 125.73 166.952 125.736 167.3 125.994L175.149 131.829Z" fill="url(#paint5_linear_1603_3238)"/>
<path fill-rule="evenodd" clip-rule="evenodd" d="M137.629 116.739C138.466 115.586 140.079 115.33 141.231 116.167L154.696 125.944C155.849 126.781 156.105 128.393 155.268 129.546C154.431 130.699 152.818 130.955 151.665 130.118L138.2 120.342C137.048 119.505 136.792 117.892 137.629 116.739Z" fill="url(#paint6_linear_1603_3238)"/>
<g style="mix-blend-mode:multiply">
<path fill-rule="evenodd" clip-rule="evenodd" d="M125.241 89.5117C125.241 89.5117 125.241 89.5118 125.241 89.5119V101.918C125.241 102.47 125.689 102.918 126.241 102.918H137.397C137.956 102.918 138.41 103.378 138.358 103.934C137.729 110.626 132.097 115.862 125.241 115.862C117.965 115.862 112.066 109.963 112.066 102.687C112.066 95.4104 117.965 89.5117 125.241 89.5117Z" fill="url(#paint7_linear_1603_3238)"/>
</g>
<g style="mix-blend-mode:multiply">
<ellipse cx="108.656" cy="94.5533" rx="13.0017" ry="13.3628" fill="url(#paint8_linear_1603_3238)"/>
</g>
<g style="mix-blend-mode:multiply">
<path d="M127.713 101.378C134.427 100.867 139.715 95.2579 139.715 88.4138C139.715 81.5696 134.427 75.9606 127.713 75.45C127.163 75.4081 126.713 75.8598 126.713 76.4121V100.415C126.713 100.968 127.163 101.419 127.713 101.378Z" fill="url(#paint9_linear_1603_3238)"/>
</g>
<path d="M77.6394 46.0905C77.6394 51.0651 81.6722 55.0979 86.6469 55.0979C91.6215 55.0979 95.6543 51.0651 95.6543 46.0905C95.6543 41.1158 91.6215 37.083 86.6469 37.083C81.6722 37.083 77.6394 41.1158 77.6394 46.0905Z" fill="url(#paint10_linear_1603_3238)"/>
<path fill-rule="evenodd" clip-rule="evenodd" d="M117.106 116.111C118.886 116.111 120.33 117.555 120.33 119.336V149.057C120.33 150.837 118.886 152.281 117.106 152.281C115.325 152.281 113.881 150.837 113.881 149.057V119.336C113.881 117.555 115.325 116.111 117.106 116.111Z" fill="url(#paint11_linear_1603_3238)"/>
<path fill-rule="evenodd" clip-rule="evenodd" d="M64.8871 89.8984C66.6678 89.8984 68.1113 91.342 68.1113 93.1227V115.001C68.1113 116.781 66.6678 118.225 64.8871 118.225C63.1064 118.225 61.6628 116.781 61.6628 115.001V93.1227C61.6628 91.342 63.1064 89.8984 64.8871 89.8984Z" fill="url(#paint12_linear_1603_3238)"/>
<path fill-rule="evenodd" clip-rule="evenodd" d="M70.4554 83.9809C70.9446 82.2687 72.7292 81.2773 74.4414 81.7665L91.7791 86.72C93.4913 87.2092 94.4827 88.9938 93.9935 90.7059C93.5043 92.4181 91.7198 93.4095 90.0076 92.9204L72.6699 87.9668C70.9577 87.4776 69.9663 85.6931 70.4554 83.9809Z" fill="url(#paint13_linear_1603_3238)"/>
<path fill-rule="evenodd" clip-rule="evenodd" d="M92.067 54.6733C93.6958 53.9537 95.5996 54.6907 96.3192 56.3194L104.162 74.0697C104.882 75.6984 104.145 77.6022 102.516 78.3219C100.887 79.0415 98.9832 78.3045 98.2635 76.6758L90.4209 58.9255C89.7012 57.2968 90.4382 55.393 92.067 54.6733Z" fill="url(#paint14_linear_1603_3238)"/>
<path fill-rule="evenodd" clip-rule="evenodd" d="M168.336 59.0355C170.063 58.6036 171.814 59.654 172.246 61.3815L175.341 73.7653C175.773 75.4929 174.723 77.2434 172.995 77.6752C171.268 78.1071 169.517 77.0567 169.085 75.3292L165.99 62.9454C165.558 61.2179 166.608 59.4673 168.336 59.0355Z" fill="url(#paint15_linear_1603_3238)"/>
<path fill-rule="evenodd" clip-rule="evenodd" d="M161.587 56.6823C162.791 57.9949 162.702 60.0345 161.389 61.2377L141.575 79.4007C140.262 80.6039 138.223 80.5152 137.019 79.2025C135.816 77.8899 135.905 75.8504 137.217 74.6471L157.032 56.4842C158.345 55.2809 160.384 55.3696 161.587 56.6823Z" fill="url(#paint16_linear_1603_3238)"/>
<defs>
<linearGradient id="paint0_linear_1603_3238" x1="116.087" y1="154.744" x2="116.087" y2="170.535" gradientUnits="userSpaceOnUse">
<stop stop-color="#21C0E2"/>
<stop offset="1" stop-color="#01E6B5"/>
</linearGradient>
<linearGradient id="paint1_linear_1603_3238" x1="66.5097" y1="120.971" x2="66.5097" y2="135.419" gradientUnits="userSpaceOnUse">
<stop stop-color="#21C0E2"/>
<stop offset="1" stop-color="#01E6B5"/>
</linearGradient>
<linearGradient id="paint2_linear_1603_3238" x1="180.872" y1="76.6584" x2="172.942" y2="100.168" gradientUnits="userSpaceOnUse">
<stop stop-color="#21C0E2"/>
<stop offset="1" stop-color="#01E6B5"/>
</linearGradient>
<linearGradient id="paint3_linear_1603_3238" x1="61.2219" y1="77.3226" x2="67.3306" y2="87.5842" gradientUnits="userSpaceOnUse">
<stop stop-color="#21C0E2"/>
<stop offset="1" stop-color="#01E6B5"/>
</linearGradient>
<linearGradient id="paint4_linear_1603_3238" x1="162.55" y1="43.0596" x2="170.673" y2="56.7048" gradientUnits="userSpaceOnUse">
<stop stop-color="#21C0E2"/>
<stop offset="1" stop-color="#01E6B5"/>
</linearGradient>
<linearGradient id="paint5_linear_1603_3238" x1="175.732" y1="132.263" x2="157.492" y2="137.97" gradientUnits="userSpaceOnUse">
<stop stop-color="#21C0E2"/>
<stop offset="1" stop-color="#01E6B5"/>
</linearGradient>
<linearGradient id="paint6_linear_1603_3238" x1="146.448" y1="115.675" x2="146.448" y2="130.61" gradientUnits="userSpaceOnUse">
<stop stop-color="#21C0E2"/>
<stop offset="1" stop-color="#01E6B5"/>
</linearGradient>
<linearGradient id="paint7_linear_1603_3238" x1="125.214" y1="89.5117" x2="125.214" y2="115.862" gradientUnits="userSpaceOnUse">
<stop stop-color="#21C0E2"/>
<stop offset="1" stop-color="#01E6B5"/>
</linearGradient>
<linearGradient id="paint8_linear_1603_3238" x1="108.656" y1="81.1904" x2="108.656" y2="107.916" gradientUnits="userSpaceOnUse">
<stop stop-color="#21C0E2"/>
<stop offset="1" stop-color="#01E6B5"/>
</linearGradient>
<linearGradient id="paint9_linear_1603_3238" x1="133.214" y1="75.4121" x2="133.214" y2="101.415" gradientUnits="userSpaceOnUse">
<stop stop-color="#21C0E2"/>
<stop offset="1" stop-color="#01E6B5"/>
</linearGradient>
<linearGradient id="paint10_linear_1603_3238" x1="86.6469" y1="37.083" x2="86.6469" y2="55.0979" gradientUnits="userSpaceOnUse">
<stop stop-color="#21C0E2"/>
<stop offset="1" stop-color="#01E6B5"/>
</linearGradient>
<linearGradient id="paint11_linear_1603_3238" x1="117.106" y1="116.111" x2="117.106" y2="152.281" gradientUnits="userSpaceOnUse">
<stop stop-color="#21C0E2"/>
<stop offset="1" stop-color="#01E6B5"/>
</linearGradient>
<linearGradient id="paint12_linear_1603_3238" x1="64.8871" y1="89.8984" x2="64.8871" y2="118.225" gradientUnits="userSpaceOnUse">
<stop stop-color="#21C0E2"/>
<stop offset="1" stop-color="#01E6B5"/>
</linearGradient>
<linearGradient id="paint13_linear_1603_3238" x1="82.2245" y1="81.6416" x2="82.2245" y2="93.0452" gradientUnits="userSpaceOnUse">
<stop stop-color="#21C0E2"/>
<stop offset="1" stop-color="#01E6B5"/>
</linearGradient>
<linearGradient id="paint14_linear_1603_3238" x1="97.2914" y1="54.3975" x2="97.2914" y2="78.5977" gradientUnits="userSpaceOnUse">
<stop stop-color="#21C0E2"/>
<stop offset="1" stop-color="#01E6B5"/>
</linearGradient>
<linearGradient id="paint15_linear_1603_3238" x1="170.665" y1="58.9385" x2="170.665" y2="77.7723" gradientUnits="userSpaceOnUse">
<stop stop-color="#21C0E2"/>
<stop offset="1" stop-color="#01E6B5"/>
</linearGradient>
<linearGradient id="paint16_linear_1603_3238" x1="149.303" y1="55.6367" x2="149.303" y2="80.2481" gradientUnits="userSpaceOnUse">
<stop stop-color="#21C0E2"/>
<stop offset="1" stop-color="#01E6B5"/>
</linearGradient>
</defs>
</svg>
