<svg width="231" height="191" viewBox="0 0 231 191" fill="none" xmlns="http://www.w3.org/2000/svg">
<path d="M53.8374 84.7687C53.8374 83.4912 54.4476 82.2906 55.4795 81.5375L113.239 39.3882C114.652 38.3567 116.572 38.3637 117.978 39.4056L174.833 81.5365C175.851 82.2909 176.452 83.4831 176.452 84.7503V156.028C176.452 158.238 174.661 160.028 172.452 160.028H57.8374C55.6283 160.028 53.8374 158.238 53.8374 156.028V84.7687Z" fill="white"/>
<path fill-rule="evenodd" clip-rule="evenodd" d="M116.257 31.8818L176.452 82.7051L172.581 87.2896L116.179 39.6681L57.3639 87.3281L53.5864 82.6665L116.257 31.8818Z" fill="url(#paint0_linear_1603_3348)"/>
<path fill-rule="evenodd" clip-rule="evenodd" d="M59.8374 154.725V82.7354H53.8374V156.493C53.8374 158.445 55.6283 160.028 57.8374 160.028H172.452C174.661 160.028 176.452 158.445 176.452 156.493V82.7354H170.452V154.725H59.8374Z" fill="url(#paint1_linear_1603_3348)"/>
<path d="M67.5034 55.8711V96.2286C67.5034 96.7942 67.7429 97.3333 68.1625 97.7125L96.3438 123.177C96.9835 123.755 97.9216 123.858 98.6715 123.433L115.105 114.11C115.751 113.744 116.547 113.765 117.172 114.166L131.43 123.31C132.197 123.802 133.2 123.713 133.868 123.094L161.283 97.7106C161.691 97.3321 161.924 96.8002 161.924 96.2431V55.8711C161.924 54.7665 161.028 53.8711 159.924 53.8711H69.5034C68.3988 53.8711 67.5034 54.7665 67.5034 55.8711Z" fill="white"/>
<path fill-rule="evenodd" clip-rule="evenodd" d="M71.7246 57.0107V95.8556H64.7246V55.5107C64.7246 52.4732 67.187 50.0107 70.2246 50.0107H160.284C163.322 50.0107 165.784 52.4732 165.784 55.5107V95.8556H158.784V57.0107H71.7246Z" fill="url(#paint2_linear_1603_3348)"/>
<path fill-rule="evenodd" clip-rule="evenodd" d="M137.381 124.716L176.148 153.665L172.17 158.669L115.642 116.456L100.219 127.526L59.2109 158.654L55.1925 153.68L93.339 124.725L54.8975 87.4656L59.506 82.9989L98.5627 120.855L111.763 111.38C114.104 109.699 117.311 109.729 119.619 111.452L132.172 120.826L171.866 82.7356L176.452 87.2248L137.381 124.716Z" fill="url(#paint3_linear_1603_3348)"/>
<path fill-rule="evenodd" clip-rule="evenodd" d="M147.364 69.3994H81.1035V65.3994H147.364V69.3994Z" fill="url(#paint4_linear_1603_3348)"/>
<path fill-rule="evenodd" clip-rule="evenodd" d="M147.364 80.7344H81.1035V76.7344H147.364V80.7344Z" fill="url(#paint5_linear_1603_3348)"/>
<path fill-rule="evenodd" clip-rule="evenodd" d="M147.364 92.0703H81.1035V88.0703H147.364V92.0703Z" fill="url(#paint6_linear_1603_3348)"/>
<defs>
<linearGradient id="paint0_linear_1603_3348" x1="115.019" y1="31.8818" x2="115.019" y2="87.3281" gradientUnits="userSpaceOnUse">
<stop stop-color="#21C0E2"/>
<stop offset="1" stop-color="#01E6B5"/>
</linearGradient>
<linearGradient id="paint1_linear_1603_3348" x1="115.145" y1="82.7354" x2="115.145" y2="160.028" gradientUnits="userSpaceOnUse">
<stop stop-color="#01E6B5"/>
<stop offset="1" stop-color="#21C0E2"/>
</linearGradient>
<linearGradient id="paint2_linear_1603_3348" x1="115.254" y1="50.0107" x2="115.254" y2="95.8556" gradientUnits="userSpaceOnUse">
<stop stop-color="#21C0E2"/>
<stop offset="1" stop-color="#01E6B5"/>
</linearGradient>
<linearGradient id="paint3_linear_1603_3348" x1="115.675" y1="158.669" x2="115.675" y2="82.7356" gradientUnits="userSpaceOnUse">
<stop stop-color="#21C0E2"/>
<stop offset="1" stop-color="#01E6B5"/>
</linearGradient>
<linearGradient id="paint4_linear_1603_3348" x1="86.8743" y1="67.4458" x2="144.478" y2="67.4458" gradientUnits="userSpaceOnUse">
<stop stop-color="#21C0E2"/>
<stop offset="1" stop-color="#01E6B5"/>
</linearGradient>
<linearGradient id="paint5_linear_1603_3348" x1="86.8743" y1="78.7807" x2="144.478" y2="78.7807" gradientUnits="userSpaceOnUse">
<stop stop-color="#21C0E2"/>
<stop offset="1" stop-color="#01E6B5"/>
</linearGradient>
<linearGradient id="paint6_linear_1603_3348" x1="86.8743" y1="90.1167" x2="144.478" y2="90.1167" gradientUnits="userSpaceOnUse">
<stop stop-color="#21C0E2"/>
<stop offset="1" stop-color="#01E6B5"/>
</linearGradient>
</defs>
</svg>
