<svg width="231" height="191" viewBox="0 0 231 191" fill="none" xmlns="http://www.w3.org/2000/svg">
<path d="M153.451 163.472H54.8649C53.8247 163.472 52.9814 162.629 52.9814 161.588V29.7741C52.9814 28.7339 53.8247 27.8906 54.8649 27.8906H127.476L155.335 58.7616V161.588C155.335 162.629 154.492 163.472 153.451 163.472Z" fill="white"/>
<path fill-rule="evenodd" clip-rule="evenodd" d="M124.651 33.5409H58.6318V157.821H149.684V61.5868H128.418C126.338 61.5868 124.651 59.9003 124.651 57.8199V33.5409ZM155.335 58.7616V161.588C155.335 162.629 154.492 163.472 153.451 163.472H54.8649C53.8247 163.472 52.9814 162.629 52.9814 161.588V29.7741C52.9814 28.7339 53.8247 27.8906 54.8649 27.8906H127.476L155.335 58.7616ZM145.174 55.9364L130.302 39.4552V55.9364H145.174Z" fill="url(#paint0_linear_1603_3329)"/>
<path d="M164.332 163.472H65.7457C64.7055 163.472 63.8623 162.629 63.8623 161.588V29.7741C63.8623 28.7339 64.7055 27.8906 65.7457 27.8906H138.357L166.216 58.7616V161.588C166.216 162.629 165.372 163.472 164.332 163.472Z" fill="white"/>
<path fill-rule="evenodd" clip-rule="evenodd" d="M135.532 33.5409H69.5126V157.821H160.565V61.5868H139.299C137.219 61.5868 135.532 59.9003 135.532 57.8199V33.5409ZM166.216 58.7616V161.588C166.216 162.629 165.372 163.472 164.332 163.472H65.7457C64.7055 163.472 63.8623 162.629 63.8623 161.588V29.7741C63.8623 28.7339 64.7055 27.8906 65.7457 27.8906H138.357L166.216 58.7616ZM156.055 55.9364L141.182 39.4552V55.9364H156.055Z" fill="url(#paint1_linear_1603_3329)"/>
<path d="M176.325 163.472H77.7389C76.6987 163.472 75.8555 162.629 75.8555 161.588V29.7741C75.8555 28.7339 76.6987 27.8906 77.7389 27.8906H150.35L178.209 58.7616V161.588C178.209 162.629 177.366 163.472 176.325 163.472Z" fill="white"/>
<path fill-rule="evenodd" clip-rule="evenodd" d="M147.525 33.5409H81.5058V157.821H172.558V61.5868H151.292C149.212 61.5868 147.525 59.9003 147.525 57.8199V33.5409ZM178.209 58.7616V161.588C178.209 162.629 177.366 163.472 176.325 163.472H77.7389C76.6987 163.472 75.8555 162.629 75.8555 161.588V29.7741C75.8555 28.7339 76.6987 27.8906 77.7389 27.8906H150.35L178.209 58.7616ZM168.048 55.9364L153.176 39.4552V55.9364H168.048Z" fill="url(#paint2_linear_1603_3329)"/>
<g style="mix-blend-mode:multiply">
<path fill-rule="evenodd" clip-rule="evenodd" d="M134.096 94.419H134.063V111.55H150.896C150.738 120.712 143.262 128.091 134.063 128.091C124.764 128.091 117.227 120.553 117.227 111.255C117.227 101.957 124.764 94.4189 134.063 94.4189C134.074 94.4189 134.085 94.419 134.096 94.419Z" fill="url(#paint3_linear_1603_3329)"/>
</g>
<g style="mix-blend-mode:multiply">
<ellipse cx="112.87" cy="100.861" rx="16.6145" ry="17.076" fill="url(#paint4_linear_1603_3329)"/>
</g>
<g style="mix-blend-mode:multiply">
<path d="M135.945 109.63C145.121 109.63 152.56 102.192 152.56 93.0159C152.56 83.8399 145.121 76.4014 135.945 76.4014V109.63Z" fill="url(#paint5_linear_1603_3329)"/>
</g>
<defs>
<linearGradient id="paint0_linear_1603_3329" x1="104.158" y1="27.8906" x2="104.158" y2="163.472" gradientUnits="userSpaceOnUse">
<stop stop-color="#21C0E2"/>
<stop offset="1" stop-color="#01E6B5"/>
</linearGradient>
<linearGradient id="paint1_linear_1603_3329" x1="115.039" y1="27.8906" x2="115.039" y2="163.472" gradientUnits="userSpaceOnUse">
<stop stop-color="#21C0E2"/>
<stop offset="1" stop-color="#01E6B5"/>
</linearGradient>
<linearGradient id="paint2_linear_1603_3329" x1="127.032" y1="27.8906" x2="127.032" y2="163.472" gradientUnits="userSpaceOnUse">
<stop stop-color="#21C0E2"/>
<stop offset="1" stop-color="#01E6B5"/>
</linearGradient>
<linearGradient id="paint3_linear_1603_3329" x1="134.061" y1="94.4189" x2="134.061" y2="128.091" gradientUnits="userSpaceOnUse">
<stop stop-color="#21C0E2"/>
<stop offset="1" stop-color="#01E6B5"/>
</linearGradient>
<linearGradient id="paint4_linear_1603_3329" x1="112.87" y1="83.7852" x2="112.87" y2="117.937" gradientUnits="userSpaceOnUse">
<stop stop-color="#21C0E2"/>
<stop offset="1" stop-color="#01E6B5"/>
</linearGradient>
<linearGradient id="paint5_linear_1603_3329" x1="144.253" y1="76.4014" x2="144.253" y2="109.63" gradientUnits="userSpaceOnUse">
<stop stop-color="#21C0E2"/>
<stop offset="1" stop-color="#01E6B5"/>
</linearGradient>
</defs>
</svg>
