<svg width="91" height="114" viewBox="0 0 91 114" fill="none" xmlns="http://www.w3.org/2000/svg">
<g filter="url(#filter0_d_848_7419)">
<path d="M1.02979 4.58007C1.02979 2.92322 2.37293 1.58008 4.02979 1.58008H86.0298C87.6866 1.58008 89.0298 2.92322 89.0298 4.58008V88.3411C89.0298 89.5344 88.3226 90.6142 87.2287 91.0911L46.2287 108.966C45.4642 109.3 44.5954 109.3 43.8308 108.966L2.83083 91.0911L2.43118 92.0078L2.83083 91.0911C1.73699 90.6142 1.02979 89.5344 1.02979 88.3411V4.58007Z" fill="#A2FFEB" stroke="#3E3498" stroke-width="2"/>
</g>
<path fill-rule="evenodd" clip-rule="evenodd" d="M54.1392 36.8174C52.5105 36.8174 51.1901 38.1378 51.1901 39.7665V41.0757C51.1901 45.9172 48.5536 50.3745 44.3107 52.7062L43.1468 53.3458C37.0182 56.7139 33.2099 63.1522 33.2099 70.1454V73.1583C33.2099 74.7871 34.5303 76.1075 36.159 76.1075C37.7878 76.1075 39.1082 74.7871 39.1082 73.1583V70.1454C39.1082 65.304 41.7447 60.8467 45.9876 58.5149L47.1514 57.8753C53.2801 54.5072 57.0884 48.0689 57.0884 41.0757V39.7665C57.0884 38.1378 55.768 36.8174 54.1392 36.8174Z" fill="#3E3498"/>
<path fill-rule="evenodd" clip-rule="evenodd" d="M54.1392 36.8174C52.5105 36.8174 51.1901 38.1378 51.1901 39.7665V41.0757C51.1901 45.9172 48.5536 50.3745 44.3107 52.7062L43.1468 53.3458C37.0182 56.7139 33.2099 63.1522 33.2099 70.1454V73.1583C33.2099 74.7871 34.5303 76.1075 36.159 76.1075C37.7878 76.1075 39.1082 74.7871 39.1082 73.1583V70.1454C39.1082 65.304 41.7447 60.8467 45.9876 58.5149L47.1514 57.8753C53.2801 54.5072 57.0884 48.0689 57.0884 41.0757V39.7665C57.0884 38.1378 55.768 36.8174 54.1392 36.8174Z" fill="#3E3498"/>
<path fill-rule="evenodd" clip-rule="evenodd" d="M45.9886 52.7065L47.152 53.3458C48.0617 53.8458 48.9203 54.4134 49.7229 55.0404C48.8049 55.8163 47.8028 56.5078 46.7256 57.0998L45.5617 57.7394C45.1285 57.9775 44.711 58.2363 44.3101 58.5143L43.1474 57.8753C42.2374 57.3753 41.3787 56.8075 40.5759 56.1803C41.4939 55.4045 42.496 54.713 43.5732 54.121L44.7371 53.4814C45.1703 53.2433 45.5878 52.9845 45.9886 52.7065ZM44.3643 51.6531C41.0831 49.1673 39.1087 45.2654 39.1087 41.0757V39.7665C39.1087 38.1378 37.7883 36.8174 36.1596 36.8174C34.5308 36.8174 33.2104 38.1378 33.2104 39.7665V41.0757C33.2104 46.4199 35.4344 51.4399 39.2183 55.0134C40.2832 54.0873 41.4548 53.2661 42.721 52.5703L43.8849 51.9307C44.0472 51.8414 44.207 51.7489 44.3643 51.6531ZM45.9345 59.5677C49.2161 62.0534 51.1907 65.9556 51.1907 70.1455V73.1583C51.1907 74.7871 52.511 76.1075 54.1398 76.1075C55.7685 76.1075 57.0889 74.7871 57.0889 73.1583V70.1455C57.0889 64.8011 54.8648 59.7808 51.0805 56.2073C50.0156 57.1335 48.8441 57.9546 47.5778 58.6505L46.414 59.2901C46.2516 59.3793 46.0918 59.4719 45.9345 59.5677Z" fill="#3E3498"/>
<path d="M36.5257 79.2557C36.333 79.4377 36.0317 79.4377 35.839 79.2557L30.0727 73.808C29.7439 73.4973 29.9638 72.9445 30.4161 72.9445L41.9486 72.9445C42.401 72.9445 42.6208 73.4973 42.292 73.808L36.5257 79.2557Z" fill="#3E3498"/>
<path d="M54.2206 79.2557C54.0278 79.4377 53.7265 79.4377 53.5338 79.2557L47.7676 73.808C47.4388 73.4973 47.6586 72.9445 48.1109 72.9445L59.6434 72.9445C60.0958 72.9445 60.3156 73.4973 59.9868 73.808L54.2206 79.2557Z" fill="#3E3498"/>
<defs>
<filter id="filter0_d_848_7419" x="0.0297852" y="0.580078" width="90" height="112.637" filterUnits="userSpaceOnUse" color-interpolation-filters="sRGB">
<feFlood flood-opacity="0" result="BackgroundImageFix"/>
<feColorMatrix in="SourceAlpha" type="matrix" values="0 0 0 0 0 0 0 0 0 0 0 0 0 0 0 0 0 0 127 0" result="hardAlpha"/>
<feOffset dy="3"/>
<feComposite in2="hardAlpha" operator="out"/>
<feColorMatrix type="matrix" values="0 0 0 0 0 0 0 0 0 0 0 0 0 0 0 0 0 0 0.2 0"/>
<feBlend mode="normal" in2="BackgroundImageFix" result="effect1_dropShadow_848_7419"/>
<feBlend mode="normal" in="SourceGraphic" in2="effect1_dropShadow_848_7419" result="shape"/>
</filter>
</defs>
</svg>
